<svg width="24" height="24" viewBox="0 0 24 24" fill="none" xmlns="http://www.w3.org/2000/svg">
<path d="M12 0C5.4 0 0 5.4 0 12C0 18.6 5.4 24 12 24C18.6 24 24 18.6 24 12C24 5.4 18.6 0 12 0Z" fill="#01943F"/>
<path d="M9.03616 8.24438C9.04431 8.23949 9.05299 8.23552 9.06203 8.23257C9.15859 8.18776 9.25525 8.14538 9.35181 8.1077V6.20157C9.35206 6.03506 9.28619 5.87527 9.16867 5.75731C9.05115 5.63935 8.8916 5.57288 8.72509 5.57251H6.12634V11.0434C6.76099 9.81496 7.78403 8.83088 9.03616 8.24438Z" fill="white"/>
<path d="M11.682 11.5759H12.2615C12.4614 11.576 12.6594 11.5367 12.8441 11.4602C13.0288 11.3838 13.1966 11.2717 13.338 11.1303C13.4793 10.989 13.5914 10.8212 13.6679 10.6365C13.7443 10.4518 13.7836 10.2538 13.7836 10.0539V8.42349C13.4701 8.3693 12.0376 8.33911 11.7055 8.33911C10.2893 8.33824 8.92552 8.87476 7.88953 9.84034C6.85354 10.8059 6.22253 12.1286 6.1239 13.5414C6.11452 13.671 6.10974 13.8005 6.10974 13.9325C6.10974 14.0645 6.11443 14.1941 6.1239 14.3236V17.8008C6.12386 17.8831 6.14005 17.9647 6.17153 18.0407C6.20301 18.1168 6.24917 18.1859 6.30738 18.2441C6.36558 18.3023 6.43468 18.3484 6.51074 18.3799C6.58679 18.4114 6.6683 18.4276 6.75062 18.4275H9.34937V13.9018C9.35066 13.2842 9.59705 12.6924 10.0344 12.2563C10.4718 11.8203 11.0644 11.5757 11.682 11.5763V11.5759Z" fill="white"/>
<path d="M14.9689 15.7556C14.9607 15.7605 14.952 15.7645 14.943 15.7674C14.8464 15.8122 14.7498 15.8546 14.6532 15.8923V17.7984C14.653 17.965 14.7188 18.1248 14.8363 18.2427C14.9539 18.3607 15.1134 18.4271 15.2799 18.4275H17.8768V12.9565C17.2423 14.1844 16.2201 15.1684 14.9689 15.7556Z" fill="white"/>
<path d="M17.8764 9.67688V6.19923C17.8765 6.11692 17.8603 6.0354 17.8288 5.95935C17.7973 5.8833 17.7511 5.81419 17.6929 5.75599C17.6347 5.69779 17.5656 5.65162 17.4896 5.62014C17.4135 5.58866 17.332 5.57247 17.2497 5.57251H14.651V10.0988C14.6497 10.7159 14.4036 11.3073 13.9667 11.7432C13.5298 12.1791 12.9379 12.4239 12.3207 12.4238H11.7387C11.5388 12.4237 11.3408 12.463 11.1561 12.5395C10.9713 12.616 10.8035 12.7281 10.6621 12.8695C10.5208 13.0109 10.4087 13.1787 10.3322 13.3635C10.2558 13.5482 10.2165 13.7462 10.2167 13.9462V15.5766C10.5301 15.6308 11.9626 15.6609 12.2947 15.6609C12.3322 15.6609 12.3678 15.6609 12.4055 15.6586C13.1845 15.6453 13.952 15.4679 14.6579 15.1379L14.672 15.1309C15.575 14.7088 16.3486 14.0526 16.9124 13.2306C17.4762 12.4086 17.8097 11.4507 17.8783 10.4563C17.8877 10.3268 17.8925 10.1971 17.8925 10.0652C17.8906 9.93601 17.8858 9.80645 17.8764 9.67688Z" fill="white"/>
</svg>
