<svg width="24" height="24" viewBox="0 0 24 24" fill="none" xmlns="http://www.w3.org/2000/svg">
<circle cx="12" cy="12" r="12" fill="black"/>
<path d="M5.36865 5.58946C5.36865 5.46738 5.46762 5.36841 5.5897 5.36841H9.56865C9.69074 5.36841 9.7897 5.46738 9.7897 5.58946V9.56841C9.7897 9.69049 9.69074 9.78946 9.56865 9.78946H5.58971C5.46762 9.78946 5.36865 9.69049 5.36865 9.56841V5.58946Z" fill="white"/>
<path d="M5.36865 14.4315C5.36865 14.3094 5.46762 14.2104 5.5897 14.2104H9.56865C9.69074 14.2104 9.7897 14.3094 9.7897 14.4315V18.4104C9.7897 18.5325 9.69074 18.6315 9.56865 18.6315H5.58971C5.46762 18.6315 5.36865 18.5325 5.36865 18.4104V14.4315Z" fill="white"/>
<path d="M14.2104 5.58946C14.2104 5.46738 14.3094 5.36841 14.4315 5.36841H18.4104C18.5325 5.36841 18.6315 5.46738 18.6315 5.58946V9.56841C18.6315 9.69049 18.5325 9.78946 18.4104 9.78946H14.4315C14.3094 9.78946 14.2104 9.69049 14.2104 9.56841V5.58946Z" fill="white"/>
<path d="M14.2104 14.4315C14.2104 14.3094 14.3094 14.2104 14.4315 14.2104H18.4104C18.5325 14.2104 18.6315 14.3094 18.6315 14.4315V18.4104C18.6315 18.5325 18.5325 18.6315 18.4104 18.6315H14.4315C14.3094 18.6315 14.2104 18.5325 14.2104 18.4104V14.4315Z" fill="white"/>
<path d="M9.78955 10.0106C9.78955 9.88852 9.88852 9.78955 10.0106 9.78955H13.9896C14.1116 9.78955 14.2106 9.88852 14.2106 10.0106V13.9896C14.2106 14.1116 14.1116 14.2106 13.9896 14.2106H10.0106C9.88852 14.2106 9.78955 14.1116 9.78955 13.9896V10.0106Z" fill="white"/>
</svg>
